# xmcd CD database file
#
# Track frame offsets:
#	150
#	22510
#	79893
#	110864
#	179360
#	213340
#	239135
#
# Disc length: 3570 seconds
#
# Revision: 0
# Processed by: cddbd v1.5.2PL0 Copyright (c) Steve Scherf et al.
# Submitted via: CDex 1.50
#
DISCID=5a0df007
DTITLE=Quantic Nature Collection - Paradeisos
DYEAR=1900
DGENRE=New Age
TTITLE0=Satie: Gymnopedie no 1
TTITLE1=Haydn/Purcell: Canon
TTITLE2=Bach: Air on a G String
TTITLE3=Bach: Sonata no 1 in B Minor (excerpt)
TTITLE4=Cherubini: Canon
TTITLE5=Faure: Cantique De Jean Racine
TTITLE6=Schubert: Ave Maria
EXTD=
EXTT0=
EXTT1=
EXTT2=
EXTT3=
EXTT4=
EXTT5=
EXTT6=
PLAYORDER=
